# xmcd
#
# Track frame offsets:
# 150
# 20769
# 37701
# 62335
# 89615
# 104554
# 128643
# 153374
# 166385
# 181369
# 198791
# 216795
#
# Disc length: 3229 seconds
#
#
# Revision: 0
# Processed by: cddbd v1.5.2PL0 Copyright (c) Steve Scherf et al.
# Submitted via: Nero 7, 11, 10, 0 
#
DISCID=980c9b0c
DTITLE=Dmitri Resnik - Quit Clownin'
DYEAR=2000
DGENRE=Blues
TTITLE0=Unfinished Business
TTITLE1=Quit Clownin'
TTITLE2=You Don't Know What Love Is
TTITLE3=Trouble In Mind
TTITLE4=Filler' Up
TTITLE5=Swing 66
TTITLE6=Eagle Rock Me
TTITLE7=Shame, Shame, Shame
TTITLE8=Throw Down
TTITLE9=Nightcap
TTITLE10=Don't Come 'Round
TTITLE11=Too Many Broken Hearts
EXTD=
EXTT0=Unfinished Business
EXTT1=Quit Clownin'
EXTT2=You Don't Know What Love Is
EXTT3=Trouble In Mind
EXTT4=Filler' Up
EXTT5=Swing 66
EXTT6=Eagle Rock Me
EXTT7=Shame, Shame, Shame
EXTT8=Throw Down
EXTT9=Nightcap
EXTT10=Don't Come 'Round
EXTT11=Too Many Broken Hearts
PLAYORDER=
